<svg viewBox="0 0 512 512" xmlns="http://www.w3.org/2000/svg">
<defs><linearGradient id="bg" x1="0" y1="0" x2="0" y2="1">
<stop offset="0%" stop-color="#24528F"/><stop offset="100%" stop-color="#15315C"/></linearGradient></defs>
<rect width="512" height="512" rx="112" fill="url(#bg)"/>
<!-- gold star -->
<path d="M256 78 l34 78 84 8 -63 56 19 83 -74 -44 -74 44 19 -83 -63 -56 84 -8 z" fill="#F4B942"/>
<!-- skyline -->
<g fill="#FFFFFF" opacity="0.96">
<rect x="92" y="330" width="46" height="120" rx="4"/>
<rect x="150" y="290" width="40" height="160" rx="4"/>
<rect x="200" y="250" width="34" height="200" rx="4"/>
<rect x="240" y="300" width="30" height="150" rx="4"/>
<rect x="276" y="230" width="40" height="220" rx="4"/>
<rect x="324" y="284" width="36" height="166" rx="4"/>
<rect x="368" y="320" width="46" height="130" rx="4"/>
</g>
<rect x="276" y="200" width="8" height="34" fill="#FFFFFF"/>
<rect x="92" y="446" width="328" height="10" fill="#F4B942"/>
</svg>